<svg width="293" height="293" viewBox="0 0 293 293" fill="none" xmlns="http://www.w3.org/2000/svg">
<g clip-path="url(#clip0_72_775)">
<path d="M146.5 293C227.41 293 293 227.41 293 146.5C293 65.5903 227.41 0 146.5 0C65.5903 0 0 65.5903 0 146.5C0 227.41 65.5903 293 146.5 293Z" fill="#6DA544"/>
<path d="M146.5 57.3261L267.522 146.5L146.5 235.674L25.4785 146.5L146.5 57.3261Z" fill="#FFDA44"/>
<path d="M146.501 197.456C174.644 197.456 197.457 174.642 197.457 146.5C197.457 118.358 174.644 95.5438 146.501 95.5438C118.359 95.5438 95.5449 118.358 95.5449 146.5C95.5449 174.642 118.359 197.456 146.501 197.456Z" fill="#F0F0F0"/>
<path d="M121.02 143.315C112.159 143.315 103.608 144.663 95.5586 147.164C95.9151 174.999 118.579 197.457 146.499 197.457C163.763 197.457 179.01 188.863 188.228 175.729C172.458 155.988 148.193 143.315 121.02 143.315Z" fill="#0052B4"/>
<path d="M196.511 156.263C197.125 153.102 197.456 149.84 197.456 146.5C197.456 118.357 174.642 95.5438 146.5 95.5438C125.501 95.5438 107.475 108.249 99.6738 126.388C106.57 124.959 113.709 124.207 121.022 124.207C150.618 124.206 177.392 136.509 196.511 156.263Z" fill="#0052B4"/>
</g>
<defs>
<clipPath id="clip0_72_775">
<rect width="293" height="293" fill="white"/>
</clipPath>
</defs>
</svg>
